<?xml version="1.0" standalone="no"?><svg xmlns="http://www.w3.org/2000/svg" viewBox="0 0 1440 320"><path fill="#0099ff" fill-opacity="1" d="M0,32L30,48C60,64,120,96,180,138.7C240,181,300,235,360,234.7C420,235,480,181,540,165.3C600,149,660,171,720,160C780,149,840,107,900,101.3C960,96,1020,128,1080,144C1140,160,1200,160,1260,160C1320,160,1380,160,1410,160L1440,160L1440,0L1410,0C1380,0,1320,0,1260,0C1200,0,1140,0,1080,0C1020,0,960,0,900,0C840,0,780,0,720,0C660,0,600,0,540,0C480,0,420,0,360,0C300,0,240,0,180,0C120,0,60,0,30,0L0,0Z"></path></svg>