<?xml version="1.0" standalone="no"?><svg xmlns="http://www.w3.org/2000/svg" viewBox="0 0 1440 320"><path fill="#a2d9ff" fill-opacity="1" d="M0,32L30,48C60,64,120,96,180,138.7C240,181,300,235,360,234.7C420,235,480,181,540,165.3C600,149,660,171,720,160C780,149,840,107,900,101.3C960,96,1020,128,1080,144C1140,160,1200,160,1260,160C1320,160,1380,160,1410,160L1440,160L1440,320L1410,320C1380,320,1320,320,1260,320C1200,320,1140,320,1080,320C1020,320,960,320,900,320C840,320,780,320,720,320C660,320,600,320,540,320C480,320,420,320,360,320C300,320,240,320,180,320C120,320,60,320,30,320L0,320Z"></path></svg>